<mxfile host="app.diagrams.net" modified="2023-09-16T20:02:40.240Z" agent="Mozilla/5.0 (Windows NT 10.0; Win64; x64) AppleWebKit/537.36 (KHTML, like Gecko) Chrome/116.0.0.0 Safari/537.36" etag="ovbAw8-RWEsgAxOnrFBP" version="21.7.5" type="github">
  <diagram name="Страница — 1" id="8Ea1oaCpZVZsOnpf_MXl">
    <mxGraphModel dx="989" dy="523" grid="1" gridSize="10" guides="1" tooltips="1" connect="1" arrows="1" fold="1" page="1" pageScale="1" pageWidth="827" pageHeight="1169" math="0" shadow="0">
      <root>
        <mxCell id="0" />
        <mxCell id="1" parent="0" />
        <mxCell id="9oZlGw_E0PTlBS_OEf-N-3" value="USER" style="shape=umlActor;verticalLabelPosition=bottom;verticalAlign=top;html=1;" vertex="1" parent="1">
          <mxGeometry x="20" y="335" width="30" height="60" as="geometry" />
        </mxCell>
        <mxCell id="9oZlGw_E0PTlBS_OEf-N-5" value="Выбрать фигуру" style="ellipse;whiteSpace=wrap;html=1;" vertex="1" parent="1">
          <mxGeometry x="200" y="280" width="120" height="40" as="geometry" />
        </mxCell>
        <mxCell id="9oZlGw_E0PTlBS_OEf-N-13" value="" style="endArrow=none;html=1;rounded=0;exitX=1;exitY=0.3333333333333333;exitDx=0;exitDy=0;exitPerimeter=0;entryX=0;entryY=0.5;entryDx=0;entryDy=0;" edge="1" parent="1" source="9oZlGw_E0PTlBS_OEf-N-3" target="9oZlGw_E0PTlBS_OEf-N-14">
          <mxGeometry width="50" height="50" relative="1" as="geometry">
            <mxPoint x="200" y="400" as="sourcePoint" />
            <mxPoint x="250" y="350" as="targetPoint" />
          </mxGeometry>
        </mxCell>
        <mxCell id="9oZlGw_E0PTlBS_OEf-N-14" value="Поместить фигуру на холст" style="ellipse;whiteSpace=wrap;html=1;" vertex="1" parent="1">
          <mxGeometry x="200" y="440" width="120" height="40" as="geometry" />
        </mxCell>
        <mxCell id="9oZlGw_E0PTlBS_OEf-N-19" value="include&lt;br&gt;" style="endArrow=open;endSize=12;dashed=1;html=1;rounded=0;exitX=0.5;exitY=0;exitDx=0;exitDy=0;entryX=0.5;entryY=1;entryDx=0;entryDy=0;" edge="1" parent="1" source="9oZlGw_E0PTlBS_OEf-N-14" target="9oZlGw_E0PTlBS_OEf-N-5">
          <mxGeometry width="160" relative="1" as="geometry">
            <mxPoint x="140" y="310" as="sourcePoint" />
            <mxPoint x="300" y="310" as="targetPoint" />
          </mxGeometry>
        </mxCell>
        <mxCell id="9oZlGw_E0PTlBS_OEf-N-20" value="Изменить фигуру" style="ellipse;whiteSpace=wrap;html=1;" vertex="1" parent="1">
          <mxGeometry x="200" y="530" width="120" height="40" as="geometry" />
        </mxCell>
        <mxCell id="9oZlGw_E0PTlBS_OEf-N-21" value="Сохранить изображение" style="ellipse;whiteSpace=wrap;html=1;" vertex="1" parent="1">
          <mxGeometry x="200" y="200" width="120" height="40" as="geometry" />
        </mxCell>
        <mxCell id="9oZlGw_E0PTlBS_OEf-N-23" value="" style="endArrow=none;html=1;rounded=0;entryX=0;entryY=0.5;entryDx=0;entryDy=0;exitX=1;exitY=0.3333333333333333;exitDx=0;exitDy=0;exitPerimeter=0;" edge="1" parent="1" source="9oZlGw_E0PTlBS_OEf-N-3" target="9oZlGw_E0PTlBS_OEf-N-21">
          <mxGeometry width="50" height="50" relative="1" as="geometry">
            <mxPoint x="200" y="400" as="sourcePoint" />
            <mxPoint x="250" y="350" as="targetPoint" />
          </mxGeometry>
        </mxCell>
        <mxCell id="9oZlGw_E0PTlBS_OEf-N-24" value="" style="endArrow=none;html=1;rounded=0;entryX=0;entryY=0.5;entryDx=0;entryDy=0;exitX=1;exitY=0.3333333333333333;exitDx=0;exitDy=0;exitPerimeter=0;" edge="1" parent="1" source="9oZlGw_E0PTlBS_OEf-N-3" target="9oZlGw_E0PTlBS_OEf-N-5">
          <mxGeometry width="50" height="50" relative="1" as="geometry">
            <mxPoint x="200" y="400" as="sourcePoint" />
            <mxPoint x="250" y="350" as="targetPoint" />
          </mxGeometry>
        </mxCell>
        <mxCell id="9oZlGw_E0PTlBS_OEf-N-26" value="extends&lt;br&gt;" style="endArrow=open;endSize=12;dashed=1;html=1;rounded=0;entryX=0.5;entryY=1;entryDx=0;entryDy=0;exitX=0.5;exitY=0;exitDx=0;exitDy=0;" edge="1" parent="1" source="9oZlGw_E0PTlBS_OEf-N-20" target="9oZlGw_E0PTlBS_OEf-N-14">
          <mxGeometry width="160" relative="1" as="geometry">
            <mxPoint x="180" y="350" as="sourcePoint" />
            <mxPoint x="340" y="350" as="targetPoint" />
          </mxGeometry>
        </mxCell>
        <mxCell id="9oZlGw_E0PTlBS_OEf-N-27" value="" style="endArrow=none;html=1;rounded=0;exitX=1;exitY=0.3333333333333333;exitDx=0;exitDy=0;exitPerimeter=0;entryX=0;entryY=0.5;entryDx=0;entryDy=0;" edge="1" parent="1" source="9oZlGw_E0PTlBS_OEf-N-3" target="9oZlGw_E0PTlBS_OEf-N-20">
          <mxGeometry width="50" height="50" relative="1" as="geometry">
            <mxPoint x="230" y="380" as="sourcePoint" />
            <mxPoint x="280" y="330" as="targetPoint" />
          </mxGeometry>
        </mxCell>
        <mxCell id="9oZlGw_E0PTlBS_OEf-N-30" value="Application" style="shape=umlActor;verticalLabelPosition=bottom;verticalAlign=top;html=1;" vertex="1" parent="1">
          <mxGeometry x="700" y="335" width="30" height="60" as="geometry" />
        </mxCell>
        <mxCell id="9oZlGw_E0PTlBS_OEf-N-31" value="" style="endArrow=none;html=1;rounded=0;exitX=0;exitY=0.3333333333333333;exitDx=0;exitDy=0;exitPerimeter=0;entryX=1;entryY=0.5;entryDx=0;entryDy=0;" edge="1" parent="1" source="9oZlGw_E0PTlBS_OEf-N-30" target="9oZlGw_E0PTlBS_OEf-N-21">
          <mxGeometry width="50" height="50" relative="1" as="geometry">
            <mxPoint x="230" y="380" as="sourcePoint" />
            <mxPoint x="280" y="330" as="targetPoint" />
          </mxGeometry>
        </mxCell>
        <mxCell id="9oZlGw_E0PTlBS_OEf-N-33" value="" style="swimlane;startSize=0;" vertex="1" parent="1">
          <mxGeometry x="120" y="120" width="520" height="480" as="geometry" />
        </mxCell>
        <mxCell id="9oZlGw_E0PTlBS_OEf-N-4" value="Отрисовать фигуру" style="ellipse;whiteSpace=wrap;html=1;" vertex="1" parent="9oZlGw_E0PTlBS_OEf-N-33">
          <mxGeometry x="240" y="215" width="120" height="40" as="geometry" />
        </mxCell>
        <mxCell id="9oZlGw_E0PTlBS_OEf-N-35" value="System" style="text;html=1;align=center;verticalAlign=middle;resizable=0;points=[];autosize=1;strokeColor=none;fillColor=none;" vertex="1" parent="1">
          <mxGeometry x="330" y="118" width="60" height="30" as="geometry" />
        </mxCell>
        <mxCell id="9oZlGw_E0PTlBS_OEf-N-36" value="" style="endArrow=none;html=1;rounded=0;entryX=0;entryY=0.3333333333333333;entryDx=0;entryDy=0;entryPerimeter=0;exitX=1;exitY=0.5;exitDx=0;exitDy=0;" edge="1" parent="1" source="9oZlGw_E0PTlBS_OEf-N-4" target="9oZlGw_E0PTlBS_OEf-N-30">
          <mxGeometry width="50" height="50" relative="1" as="geometry">
            <mxPoint x="290" y="380" as="sourcePoint" />
            <mxPoint x="340" y="330" as="targetPoint" />
          </mxGeometry>
        </mxCell>
        <mxCell id="9oZlGw_E0PTlBS_OEf-N-37" value="" style="endArrow=none;html=1;rounded=0;entryX=0;entryY=0.3333333333333333;entryDx=0;entryDy=0;entryPerimeter=0;exitX=1;exitY=0.5;exitDx=0;exitDy=0;" edge="1" parent="1" source="9oZlGw_E0PTlBS_OEf-N-20" target="9oZlGw_E0PTlBS_OEf-N-30">
          <mxGeometry width="50" height="50" relative="1" as="geometry">
            <mxPoint x="290" y="450" as="sourcePoint" />
            <mxPoint x="340" y="400" as="targetPoint" />
          </mxGeometry>
        </mxCell>
      </root>
    </mxGraphModel>
  </diagram>
</mxfile>
